<svg width="826" height="830" viewBox="0 0 826 830" fill="none" xmlns="http://www.w3.org/2000/svg">
<path d="M692.806 874.048C738.475 836.936 696.426 693.297 741.12 687.799H931.316V874.048H811.573H692.806Z" stroke="#921D86"/>
<path d="M800.874 922.973C804.052 867.573 661.862 792.745 689.112 760.34L823.399 639L969.273 770.81L884.73 847.202L800.874 922.973Z" stroke="#5D5F27"/>
<path d="M692.925 -87.1942C730.037 -41.5251 873.676 -83.5741 879.174 -38.8796V151.316H692.925V31.5734V-87.1942Z" stroke="#921D86"/>
<path d="M644 20.8744C699.4 24.0517 774.229 -118.138 806.634 -90.8876L927.973 43.3991L796.163 189.273L719.771 104.73L644 20.8744Z" stroke="#5D5F27"/>
<path d="M-87.0749 705.806C-49.9625 751.475 93.676 709.426 99.1741 754.12V944.316H-87.0749V824.573V705.806Z" stroke="#921D86"/>
<path d="M-136 813.874C-80.5995 817.052 -5.77143 674.862 26.6336 702.112L147.973 836.399L16.1631 982.273L-60.2293 897.73L-136 813.874Z" stroke="#5D5F27"/>
<path d="M-33.0749 -84.1942C4.03745 -38.5251 147.676 -80.5741 153.174 -35.8796V154.316H-33.0749V34.5734V-84.1942Z" stroke="#921D86"/>
<path d="M-82 23.8744C-26.5995 27.0517 48.2286 -115.138 80.6336 -87.8876L201.973 46.3991L70.1631 192.273L-6.22934 107.73L-82 23.8744Z" stroke="#5D5F27"/>
</svg>
